# xmcd CD database file
#
# Track frame offsets:
#	150
#	30648
#	50691
#	81805
#	106981
#	129289
#	148897
#	169998
#
# Disc length: 2667 seconds
#
# Revision: 0
# Processed by: cddbd v1.5.1PL0 Copyright (c) Steve Scherf et al.
# Submitted via: CDex 1.51
#
DISCID=6b0a6908
DTITLE=Mandragora - parentesis
DYEAR=2004
DGENRE=Jazz
TTITLE0=Cacatua
TTITLE1=Carlos and Chick
TTITLE2=Parentesis
TTITLE3=Punto de Retorno
TTITLE4=Fondue
TTITLE5=Supernova
TTITLE6=Miboj
TTITLE7=Metamorfosis
EXTD=YEAR: 2004
EXTT0=
EXTT1=
EXTT2=
EXTT3=
EXTT4=
EXTT5=
EXTT6=
EXTT7=
PLAYORDER=
